<svg width="47" height="43" viewBox="0 0 47 43" fill="none" xmlns="http://www.w3.org/2000/svg">
<path d="M5.976 25.384V37H0.168V6.2H12.224C13.808 6.2 15.1867 6.464 16.36 6.992C17.5333 7.49067 18.5013 8.16533 19.264 9.016C20.056 9.83733 20.6427 10.7907 21.024 11.876C21.4347 12.932 21.64 14.0173 21.64 15.132V16.188C21.64 17.332 21.4347 18.4613 21.024 19.576C20.6427 20.6613 20.056 21.644 19.264 22.524C18.5013 23.3747 17.5333 24.064 16.36 24.592C15.1867 25.12 13.808 25.384 12.224 25.384H5.976ZM5.976 19.84H11.652C12.9427 19.84 13.9547 19.488 14.688 18.784C15.4507 18.08 15.832 17.1707 15.832 16.056V15.528C15.832 14.4133 15.4507 13.504 14.688 12.8C13.9547 12.096 12.9427 11.744 11.652 11.744H5.976V19.84ZM41.4974 0.699998L46.5134 2.284L33.3574 42.5L28.2974 40.916L41.4974 0.699998Z" fill="#FF5271"/>
</svg>
