<svg width="289" height="46" viewBox="0 0 289 46" fill="none" xmlns="http://www.w3.org/2000/svg">
<path d="M5.976 25.384V37H0.168V6.2H12.224C13.808 6.2 15.1867 6.464 16.36 6.992C17.5333 7.49067 18.5013 8.16533 19.264 9.016C20.056 9.83733 20.6427 10.7907 21.024 11.876C21.4347 12.932 21.64 14.0173 21.64 15.132V16.188C21.64 17.332 21.4347 18.4613 21.024 19.576C20.6427 20.6613 20.056 21.644 19.264 22.524C18.5013 23.3747 17.5333 24.064 16.36 24.592C15.1867 25.12 13.808 25.384 12.224 25.384H5.976ZM5.976 19.84H11.652C12.9427 19.84 13.9547 19.488 14.688 18.784C15.4507 18.08 15.832 17.1707 15.832 16.056V15.528C15.832 14.4133 15.4507 13.504 14.688 12.8C13.9547 12.096 12.9427 11.744 11.652 11.744H5.976V19.84ZM48.7574 26.352C48.7574 28.1707 48.4494 29.784 47.8334 31.192C47.2174 32.5707 46.3814 33.744 45.3254 34.712C44.2694 35.6507 43.0521 36.3693 41.6734 36.868C40.3241 37.3667 38.9014 37.616 37.4054 37.616C35.9094 37.616 34.4721 37.3667 33.0934 36.868C31.7441 36.3693 30.5414 35.6507 29.4854 34.712C28.4294 33.744 27.5934 32.5707 26.9774 31.192C26.3614 29.784 26.0534 28.1707 26.0534 26.352V25.824C26.0534 24.0347 26.3614 22.4507 26.9774 21.072C27.5934 19.664 28.4294 18.476 29.4854 17.508C30.5414 16.54 31.7441 15.8067 33.0934 15.308C34.4721 14.8093 35.9094 14.56 37.4054 14.56C38.9014 14.56 40.3241 14.8093 41.6734 15.308C43.0521 15.8067 44.2694 16.54 45.3254 17.508C46.3814 18.476 47.2174 19.664 47.8334 21.072C48.4494 22.4507 48.7574 24.0347 48.7574 25.824V26.352ZM37.4054 32.336C38.1974 32.336 38.9454 32.204 39.6494 31.94C40.3534 31.676 40.9694 31.2947 41.4974 30.796C42.0254 30.2973 42.4361 29.696 42.7294 28.992C43.0521 28.2587 43.2134 27.4373 43.2134 26.528V25.648C43.2134 24.7387 43.0521 23.932 42.7294 23.228C42.4361 22.4947 42.0254 21.8787 41.4974 21.38C40.9694 20.8813 40.3534 20.5 39.6494 20.236C38.9454 19.972 38.1974 19.84 37.4054 19.84C36.6134 19.84 35.8654 19.972 35.1614 20.236C34.4574 20.5 33.8414 20.8813 33.3134 21.38C32.7854 21.8787 32.3601 22.4947 32.0374 23.228C31.7441 23.932 31.5974 24.7387 31.5974 25.648V26.528C31.5974 27.4373 31.7441 28.2587 32.0374 28.992C32.3601 29.696 32.7854 30.2973 33.3134 30.796C33.8414 31.2947 34.4574 31.676 35.1614 31.94C35.8654 32.204 36.6134 32.336 37.4054 32.336ZM56.4268 15.176H70.4188V41.312C70.4188 42.8373 70.0081 43.9667 69.1868 44.7C68.3655 45.4333 67.2948 45.8 65.9748 45.8H55.6348V40.52H63.5548C64.4348 40.52 64.8748 40.036 64.8748 39.068V20.456H56.4268V15.176ZM71.7388 8.708C71.7388 9.29467 71.6215 9.852 71.3868 10.38C71.1815 10.8787 70.8881 11.3187 70.5068 11.7C70.1255 12.052 69.6708 12.3453 69.1428 12.58C68.6441 12.7853 68.1161 12.888 67.5588 12.888C66.9721 12.888 66.4295 12.7853 65.9308 12.58C65.4321 12.3453 64.9921 12.052 64.6108 11.7C64.2295 11.3187 63.9215 10.8787 63.6868 10.38C63.4815 9.852 63.3788 9.29467 63.3788 8.708C63.3788 8.12133 63.4815 7.57867 63.6868 7.08C63.9215 6.552 64.2295 6.112 64.6108 5.76C64.9921 5.37866 65.4321 5.08533 65.9308 4.88C66.4295 4.64533 66.9721 4.528 67.5588 4.528C68.1161 4.528 68.6441 4.64533 69.1428 4.88C69.6708 5.08533 70.1255 5.37866 70.5068 5.76C70.8881 6.112 71.1815 6.552 71.3868 7.08C71.6215 7.57867 71.7388 8.12133 71.7388 8.708ZM102.64 26.352C102.64 28.1707 102.332 29.784 101.716 31.192C101.1 32.5707 100.264 33.744 99.2082 34.712C98.1522 35.6507 96.9349 36.3693 95.5562 36.868C94.2069 37.3667 92.7842 37.616 91.2882 37.616C89.7922 37.616 88.3549 37.3667 86.9762 36.868C85.6269 36.3693 84.4242 35.6507 83.3682 34.712C82.3122 33.744 81.4762 32.5707 80.8602 31.192C80.2442 29.784 79.9362 28.1707 79.9362 26.352V25.824C79.9362 24.0347 80.2442 22.4507 80.8602 21.072C81.4762 19.664 82.3122 18.476 83.3682 17.508C84.4242 16.54 85.6269 15.8067 86.9762 15.308C88.3549 14.8093 89.7922 14.56 91.2882 14.56C92.7842 14.56 94.2069 14.8093 95.5562 15.308C96.9349 15.8067 98.1522 16.54 99.2082 17.508C100.264 18.476 101.1 19.664 101.716 21.072C102.332 22.4507 102.64 24.0347 102.64 25.824V26.352ZM91.2882 32.336C92.0802 32.336 92.8282 32.204 93.5322 31.94C94.2362 31.676 94.8522 31.2947 95.3802 30.796C95.9082 30.2973 96.3189 29.696 96.6122 28.992C96.9349 28.2587 97.0962 27.4373 97.0962 26.528V25.648C97.0962 24.7387 96.9349 23.932 96.6122 23.228C96.3189 22.4947 95.9082 21.8787 95.3802 21.38C94.8522 20.8813 94.2362 20.5 93.5322 20.236C92.8282 19.972 92.0802 19.84 91.2882 19.84C90.4962 19.84 89.7482 19.972 89.0442 20.236C88.3402 20.5 87.7242 20.8813 87.1962 21.38C86.6682 21.8787 86.2429 22.4947 85.9202 23.228C85.6269 23.932 85.4802 24.7387 85.4802 25.648V26.528C85.4802 27.4373 85.6269 28.2587 85.9202 28.992C86.2429 29.696 86.6682 30.2973 87.1962 30.796C87.7242 31.2947 88.3402 31.676 89.0442 31.94C89.7482 32.204 90.4962 32.336 91.2882 32.336ZM115.502 23.184H116.558L122.366 15.176H128.438V15.44L121.398 25.428V26.22L129.142 36.736V37H122.806L116.558 28.464H115.502V37H109.958V6.2H115.502V23.184ZM156.523 26.352C156.523 28.1707 156.215 29.784 155.599 31.192C154.983 32.5707 154.147 33.744 153.091 34.712C152.035 35.6507 150.818 36.3693 149.439 36.868C148.09 37.3667 146.667 37.616 145.171 37.616C143.675 37.616 142.238 37.3667 140.859 36.868C139.51 36.3693 138.307 35.6507 137.251 34.712C136.195 33.744 135.359 32.5707 134.743 31.192C134.127 29.784 133.819 28.1707 133.819 26.352V25.824C133.819 24.0347 134.127 22.4507 134.743 21.072C135.359 19.664 136.195 18.476 137.251 17.508C138.307 16.54 139.51 15.8067 140.859 15.308C142.238 14.8093 143.675 14.56 145.171 14.56C146.667 14.56 148.09 14.8093 149.439 15.308C150.818 15.8067 152.035 16.54 153.091 17.508C154.147 18.476 154.983 19.664 155.599 21.072C156.215 22.4507 156.523 24.0347 156.523 25.824V26.352ZM145.171 32.336C145.963 32.336 146.711 32.204 147.415 31.94C148.119 31.676 148.735 31.2947 149.263 30.796C149.791 30.2973 150.202 29.696 150.495 28.992C150.818 28.2587 150.979 27.4373 150.979 26.528V25.648C150.979 24.7387 150.818 23.932 150.495 23.228C150.202 22.4947 149.791 21.8787 149.263 21.38C148.735 20.8813 148.119 20.5 147.415 20.236C146.711 19.972 145.963 19.84 145.171 19.84C144.379 19.84 143.631 19.972 142.927 20.236C142.223 20.5 141.607 20.8813 141.079 21.38C140.551 21.8787 140.126 22.4947 139.803 23.228C139.51 23.932 139.363 24.7387 139.363 25.648V26.528C139.363 27.4373 139.51 28.2587 139.803 28.992C140.126 29.696 140.551 30.2973 141.079 30.796C141.607 31.2947 142.223 31.676 142.927 31.94C143.631 32.204 144.379 32.336 145.171 32.336ZM177.744 33.832H176.952C176.718 34.3307 176.424 34.8147 176.072 35.284C175.75 35.724 175.31 36.12 174.752 36.472C174.224 36.824 173.579 37.1027 172.816 37.308C172.083 37.5133 171.188 37.616 170.132 37.616C168.783 37.616 167.522 37.3813 166.348 36.912C165.204 36.4133 164.192 35.6947 163.312 34.756C162.462 33.788 161.787 32.6147 161.288 31.236C160.819 29.8573 160.584 28.2733 160.584 26.484V25.692C160.584 23.932 160.834 22.3627 161.332 20.984C161.86 19.6053 162.564 18.4467 163.444 17.508C164.354 16.54 165.395 15.8067 166.568 15.308C167.771 14.8093 169.032 14.56 170.352 14.56C172.112 14.56 173.506 14.8973 174.532 15.572C175.559 16.2173 176.366 17.1413 176.952 18.344H177.744V6.2H183.288V37H177.744V33.832ZM171.936 32.336C173.667 32.336 175.06 31.7933 176.116 30.708C177.202 29.5933 177.744 28.1413 177.744 26.352V25.824C177.744 24.0347 177.202 22.5973 176.116 21.512C175.06 20.3973 173.667 19.84 171.936 19.84C170.206 19.84 168.798 20.3827 167.712 21.468C166.656 22.524 166.128 23.976 166.128 25.824V26.352C166.128 28.2 166.656 29.6667 167.712 30.752C168.798 31.808 170.206 32.336 171.936 32.336ZM189.418 31.72H196.81V20.456H189.946V15.176H202.354V31.72H208.69V37H189.418V31.72ZM203.718 8.708C203.718 9.29467 203.601 9.852 203.366 10.38C203.161 10.8787 202.867 11.3187 202.486 11.7C202.105 12.052 201.65 12.3453 201.122 12.58C200.623 12.7853 200.095 12.888 199.538 12.888C198.951 12.888 198.409 12.7853 197.91 12.58C197.411 12.3453 196.971 12.052 196.59 11.7C196.209 11.3187 195.901 10.8787 195.666 10.38C195.461 9.852 195.358 9.29467 195.358 8.708C195.358 8.12133 195.461 7.57867 195.666 7.08C195.901 6.552 196.209 6.112 196.59 5.76C196.971 5.37866 197.411 5.08533 197.91 4.88C198.409 4.64533 198.951 4.528 199.538 4.528C200.095 4.528 200.623 4.64533 201.122 4.88C201.65 5.08533 202.105 5.37866 202.486 5.76C202.867 6.112 203.161 6.552 203.366 7.08C203.601 7.57867 203.718 8.12133 203.718 8.708ZM221.507 37H215.963V15.176H221.507V18.432H222.299C222.798 17.2 223.605 16.2467 224.719 15.572C225.834 14.8973 227.139 14.56 228.635 14.56C229.691 14.56 230.674 14.736 231.583 15.088C232.522 15.4107 233.343 15.924 234.047 16.628C234.751 17.332 235.294 18.2267 235.675 19.312C236.086 20.3973 236.291 21.688 236.291 23.184V37H230.747V24.592C230.747 23.0373 230.366 21.82 229.603 20.94C228.87 20.0307 227.799 19.576 226.391 19.576C224.749 19.576 223.517 20.1333 222.695 21.248C221.903 22.3333 221.507 23.8 221.507 25.648V37ZM258.481 33.832H257.689C257.454 34.3307 257.161 34.8147 256.809 35.284C256.486 35.724 256.046 36.12 255.489 36.472C254.961 36.824 254.315 37.1027 253.553 37.308C252.819 37.5133 251.925 37.616 250.869 37.616C249.519 37.616 248.258 37.3813 247.085 36.912C245.941 36.4133 244.929 35.6947 244.049 34.756C243.198 33.788 242.523 32.6147 242.025 31.236C241.555 29.8573 241.321 28.2733 241.321 26.484V25.692C241.321 23.932 241.57 22.3627 242.069 20.984C242.597 19.6053 243.301 18.4467 244.181 17.508C245.09 16.54 246.131 15.8067 247.305 15.308C248.507 14.8093 249.769 14.56 251.089 14.56C252.849 14.56 254.242 14.8973 255.269 15.572C256.295 16.2173 257.102 17.1413 257.689 18.344H258.481V15.176H264.025V42.368C264.025 43.3653 263.702 44.1867 263.057 44.832C262.441 45.4773 261.634 45.8 260.637 45.8H245.941V40.52H257.293C258.085 40.52 258.481 40.08 258.481 39.2V33.832ZM252.673 32.336C254.403 32.336 255.797 31.7933 256.853 30.708C257.938 29.5933 258.481 28.1413 258.481 26.352V25.824C258.481 24.0347 257.938 22.5973 256.853 21.512C255.797 20.3973 254.403 19.84 252.673 19.84C250.942 19.84 249.534 20.3827 248.449 21.468C247.393 22.524 246.865 23.976 246.865 25.824V26.352C246.865 28.2 247.393 29.6667 248.449 30.752C249.534 31.808 250.942 32.336 252.673 32.336ZM283.97 0.699998L288.986 2.284L275.83 42.5L270.77 40.916L283.97 0.699998Z" fill="#FF5271"/>
</svg>
